<svg viewBox="0 0 800 440" xmlns="http://www.w3.org/2000/svg" xmlns:xlink="http://www.w3.org/1999/xlink"><path fill="#656565" d="M137.52 182.45l-9.42 7.22c-5.2-6.76-11.44-11.9-18.72-15.38-7.28-3.5-15.28-5.3-24-5.3-9.52 0-18.34 2.3-26.46 6.8-8.12 4.57-14.4 10.72-18.88 18.43-4.47 7.72-6.7 16.4-6.7 26.03 0 14.56 5 26.7 14.98 36.45 10 9.75 22.6 14.6 37.8 14.6 16.73 0 30.72-6.53 41.98-19.63l9.42 7.12c-5.96 7.56-13.4 13.42-22.3 17.56-8.9 4.16-18.84 6.23-29.83 6.23-20.9 0-37.4-6.97-49.5-20.88C25.8 250 20.7 235.8 20.7 219.2c0-17.47 6.1-32.18 18.4-44.1 12.22-11.96 27.6-17.9 46.04-17.9 11.16 0 21.23 2.2 30.2 6.6 9 4.4 16.36 10.6 22.1 18.55z"/><path fill="none" stroke="#656565" stroke-width="11" d="M195.2 179.25v81.5M236.28 220H154.1"/><path fill="none" stroke="#656565" stroke-width="11" d="M195.2 179.25v81.5M236.28 220H154.1" transform="translate(106.4)"/><circle cx="579.24" cy="220" r="200" fill="#9ed66f"/><path fill="#fff" d="M417.66 175.83h11.37v15.83c4.55-6.06 9.58-10.6 15.1-13.6s11.53-4.5 18.03-4.5c6.6 0 12.46 1.67 17.58 5.03 5.1 3.3 8.9 7.8 11.32 13.5 2.44 5.7 3.66 14.5 3.66 26.5v45.45h-11.3V222c0-10.18-.42-16.97-1.3-20.38-1.34-5.85-3.88-10.24-7.62-13.2-3.73-2.94-8.6-4.42-14.6-4.42-6.9 0-13.05 2.27-18.5 6.82-5.43 4.55-9 10.18-10.74 16.9-1.1 4.37-1.63 12.4-1.63 24.02v32.4h-11.37V175.8zm143.23-2.27c13.5 0 24.8 4.92 33.7 14.77 8.1 9 12.2 19.63 12.2 31.9 0 12.36-4.3 23.14-12.9 32.37-8.6 9.23-19.6 13.84-33.1 13.84s-24.6-4.6-33.18-13.84c-8.57-9.23-12.86-20-12.86-32.36 0-12.23 4.06-22.84 12.17-31.82 8.93-9.9 20.2-14.86 33.85-14.86zm0 11.12c-9.5 0-17.6 3.5-24.3 10.47-6.8 7-10.2 15.43-10.2 25.34 0 6.3 1.5 12.3 4.6 17.8s7.23 9.8 12.5 12.8 11 4.5 17.3 4.5c6.25 0 12.02-1.5 17.3-4.5s9.4-7.3 12.5-12.8c3.1-5.5 4.6-11.5 4.6-17.9 0-9.9-3.4-18.38-10.2-25.37-6.8-6.98-14.87-10.47-24.24-10.47zm55.1-8.85h11.7l27 64.14 28.3-64.14h2l28.24 64.14 27.52-64.14h11.85l-38.33 88.34h-2.2L684 200.92l-28.32 63.25h-2.1L616 175.83z"/></svg>